<mxfile host="app.diagrams.net" modified="2021-02-26T21:45:22.284Z" agent="5.0 (Macintosh; Intel Mac OS X 10_15_7) AppleWebKit/537.36 (KHTML, like Gecko) Chrome/88.0.4324.192 Safari/537.36" etag="64PVwvaKzos-Em0wDe7e" version="14.2.9" type="github">
  <diagram id="fjvgU8WrjvXOStXzZthH" name="Page-1">
    <mxGraphModel dx="1186" dy="553" grid="1" gridSize="10" guides="1" tooltips="1" connect="1" arrows="1" fold="1" page="1" pageScale="1" pageWidth="1169" pageHeight="827" math="0" shadow="0">
      <root>
        <mxCell id="0" />
        <mxCell id="1" parent="0" />
        <mxCell id="BMYa5kSyrUJmGnu70YS5-11" style="edgeStyle=orthogonalEdgeStyle;rounded=0;orthogonalLoop=1;jettySize=auto;html=1;entryX=0.5;entryY=0;entryDx=0;entryDy=0;fontSize=14;" edge="1" parent="1" source="BMYa5kSyrUJmGnu70YS5-1" target="BMYa5kSyrUJmGnu70YS5-9">
          <mxGeometry relative="1" as="geometry" />
        </mxCell>
        <mxCell id="BMYa5kSyrUJmGnu70YS5-12" value="1. aws ecr create-repository" style="edgeLabel;html=1;align=center;verticalAlign=middle;resizable=0;points=[];fontSize=14;" vertex="1" connectable="0" parent="BMYa5kSyrUJmGnu70YS5-11">
          <mxGeometry x="-0.2133" relative="1" as="geometry">
            <mxPoint as="offset" />
          </mxGeometry>
        </mxCell>
        <mxCell id="BMYa5kSyrUJmGnu70YS5-1" value="Amazon ECR" style="outlineConnect=0;fontColor=#232F3E;gradientColor=none;strokeColor=#ffffff;fillColor=#232F3E;dashed=0;verticalLabelPosition=middle;verticalAlign=bottom;align=center;html=1;whiteSpace=wrap;fontSize=10;fontStyle=1;spacing=3;shape=mxgraph.aws4.productIcon;prIcon=mxgraph.aws4.ecr;" vertex="1" parent="1">
          <mxGeometry x="80" y="40" width="80" height="100" as="geometry" />
        </mxCell>
        <mxCell id="BMYa5kSyrUJmGnu70YS5-18" style="edgeStyle=orthogonalEdgeStyle;rounded=0;orthogonalLoop=1;jettySize=auto;html=1;fontSize=14;" edge="1" parent="1" source="BMYa5kSyrUJmGnu70YS5-2" target="BMYa5kSyrUJmGnu70YS5-17">
          <mxGeometry relative="1" as="geometry" />
        </mxCell>
        <mxCell id="BMYa5kSyrUJmGnu70YS5-19" value="4. eksctl create cluster" style="edgeLabel;html=1;align=center;verticalAlign=middle;resizable=0;points=[];fontSize=14;" vertex="1" connectable="0" parent="BMYa5kSyrUJmGnu70YS5-18">
          <mxGeometry x="-0.1571" y="-2" relative="1" as="geometry">
            <mxPoint as="offset" />
          </mxGeometry>
        </mxCell>
        <mxCell id="BMYa5kSyrUJmGnu70YS5-2" value="Amazon EKS" style="outlineConnect=0;fontColor=#232F3E;gradientColor=none;strokeColor=#ffffff;fillColor=#232F3E;dashed=0;verticalLabelPosition=middle;verticalAlign=bottom;align=center;html=1;whiteSpace=wrap;fontSize=10;fontStyle=1;spacing=3;shape=mxgraph.aws4.productIcon;prIcon=mxgraph.aws4.eks;" vertex="1" parent="1">
          <mxGeometry x="560" y="40" width="80" height="100" as="geometry" />
        </mxCell>
        <mxCell id="BMYa5kSyrUJmGnu70YS5-27" style="edgeStyle=orthogonalEdgeStyle;rounded=0;orthogonalLoop=1;jettySize=auto;html=1;entryX=0.417;entryY=0.167;entryDx=0;entryDy=0;entryPerimeter=0;fontSize=14;" edge="1" parent="1" source="BMYa5kSyrUJmGnu70YS5-3" target="BMYa5kSyrUJmGnu70YS5-24">
          <mxGeometry relative="1" as="geometry">
            <Array as="points">
              <mxPoint x="800" y="290" />
            </Array>
          </mxGeometry>
        </mxCell>
        <mxCell id="BMYa5kSyrUJmGnu70YS5-3" value="Amazon EC2" style="outlineConnect=0;fontColor=#232F3E;gradientColor=none;strokeColor=#ffffff;fillColor=#232F3E;dashed=0;verticalLabelPosition=middle;verticalAlign=bottom;align=center;html=1;whiteSpace=wrap;fontSize=10;fontStyle=1;spacing=3;shape=mxgraph.aws4.productIcon;prIcon=mxgraph.aws4.ec2;" vertex="1" parent="1">
          <mxGeometry x="760" y="40" width="80" height="100" as="geometry" />
        </mxCell>
        <mxCell id="BMYa5kSyrUJmGnu70YS5-14" style="edgeStyle=orthogonalEdgeStyle;rounded=0;orthogonalLoop=1;jettySize=auto;html=1;fontSize=14;" edge="1" parent="1" source="BMYa5kSyrUJmGnu70YS5-4" target="BMYa5kSyrUJmGnu70YS5-13">
          <mxGeometry relative="1" as="geometry" />
        </mxCell>
        <mxCell id="BMYa5kSyrUJmGnu70YS5-15" value="2. docker build" style="edgeLabel;html=1;align=center;verticalAlign=middle;resizable=0;points=[];fontSize=14;" vertex="1" connectable="0" parent="BMYa5kSyrUJmGnu70YS5-14">
          <mxGeometry x="-0.1765" y="1" relative="1" as="geometry">
            <mxPoint x="-1" y="14" as="offset" />
          </mxGeometry>
        </mxCell>
        <mxCell id="BMYa5kSyrUJmGnu70YS5-4" value="" style="shape=image;html=1;verticalAlign=top;verticalLabelPosition=bottom;labelBackgroundColor=#ffffff;imageAspect=0;aspect=fixed;image=https://cdn1.iconfinder.com/data/icons/social-media-2106/24/social_media_social_media_logo_docker-128.png" vertex="1" parent="1">
          <mxGeometry x="330" y="40" width="80" height="80" as="geometry" />
        </mxCell>
        <mxCell id="BMYa5kSyrUJmGnu70YS5-21" style="edgeStyle=orthogonalEdgeStyle;rounded=0;orthogonalLoop=1;jettySize=auto;html=1;fontSize=14;" edge="1" parent="1" source="BMYa5kSyrUJmGnu70YS5-5" target="BMYa5kSyrUJmGnu70YS5-20">
          <mxGeometry relative="1" as="geometry" />
        </mxCell>
        <mxCell id="BMYa5kSyrUJmGnu70YS5-22" value="5. kubectl create deployment" style="edgeLabel;html=1;align=center;verticalAlign=middle;resizable=0;points=[];fontSize=14;" vertex="1" connectable="0" parent="BMYa5kSyrUJmGnu70YS5-21">
          <mxGeometry x="-0.1125" y="-2" relative="1" as="geometry">
            <mxPoint x="1.99" y="-80" as="offset" />
          </mxGeometry>
        </mxCell>
        <mxCell id="BMYa5kSyrUJmGnu70YS5-5" value="" style="aspect=fixed;html=1;points=[];align=center;image;fontSize=12;image=img/lib/mscae/Kubernetes.svg;" vertex="1" parent="1">
          <mxGeometry x="968.33" y="40" width="83.33" height="80" as="geometry" />
        </mxCell>
        <mxCell id="BMYa5kSyrUJmGnu70YS5-28" style="edgeStyle=orthogonalEdgeStyle;rounded=0;orthogonalLoop=1;jettySize=auto;html=1;fontSize=14;" edge="1" parent="1" source="BMYa5kSyrUJmGnu70YS5-9">
          <mxGeometry relative="1" as="geometry">
            <mxPoint x="1010" y="390" as="targetPoint" />
            <Array as="points">
              <mxPoint x="120" y="390" />
              <mxPoint x="1010" y="390" />
            </Array>
          </mxGeometry>
        </mxCell>
        <mxCell id="BMYa5kSyrUJmGnu70YS5-9" value="repository" style="rounded=0;whiteSpace=wrap;html=1;fontSize=14;" vertex="1" parent="1">
          <mxGeometry x="60" y="280" width="120" height="60" as="geometry" />
        </mxCell>
        <mxCell id="BMYa5kSyrUJmGnu70YS5-16" value="3. docker push" style="edgeStyle=orthogonalEdgeStyle;rounded=0;orthogonalLoop=1;jettySize=auto;html=1;entryX=1;entryY=0.5;entryDx=0;entryDy=0;fontSize=14;" edge="1" parent="1" source="BMYa5kSyrUJmGnu70YS5-13" target="BMYa5kSyrUJmGnu70YS5-9">
          <mxGeometry relative="1" as="geometry" />
        </mxCell>
        <mxCell id="BMYa5kSyrUJmGnu70YS5-13" value="image" style="rounded=0;whiteSpace=wrap;html=1;fontSize=14;" vertex="1" parent="1">
          <mxGeometry x="310" y="280" width="120" height="60" as="geometry" />
        </mxCell>
        <mxCell id="BMYa5kSyrUJmGnu70YS5-30" style="edgeStyle=orthogonalEdgeStyle;rounded=0;orthogonalLoop=1;jettySize=auto;html=1;entryX=0;entryY=0.5;entryDx=0;entryDy=0;fontSize=14;" edge="1" parent="1" source="BMYa5kSyrUJmGnu70YS5-17" target="BMYa5kSyrUJmGnu70YS5-24">
          <mxGeometry relative="1" as="geometry" />
        </mxCell>
        <mxCell id="BMYa5kSyrUJmGnu70YS5-17" value="cluster" style="rounded=0;whiteSpace=wrap;html=1;fontSize=14;" vertex="1" parent="1">
          <mxGeometry x="540" y="280" width="120" height="60" as="geometry" />
        </mxCell>
        <mxCell id="BMYa5kSyrUJmGnu70YS5-31" style="edgeStyle=orthogonalEdgeStyle;rounded=0;orthogonalLoop=1;jettySize=auto;html=1;entryX=0.5;entryY=1;entryDx=0;entryDy=0;fontSize=14;" edge="1" parent="1" source="BMYa5kSyrUJmGnu70YS5-20" target="BMYa5kSyrUJmGnu70YS5-17">
          <mxGeometry relative="1" as="geometry" />
        </mxCell>
        <mxCell id="BMYa5kSyrUJmGnu70YS5-20" value="deployment" style="rounded=0;whiteSpace=wrap;html=1;fontSize=14;" vertex="1" parent="1">
          <mxGeometry x="950" y="470" width="120" height="60" as="geometry" />
        </mxCell>
        <mxCell id="BMYa5kSyrUJmGnu70YS5-24" value="instances" style="rounded=0;whiteSpace=wrap;html=1;fontSize=14;" vertex="1" parent="1">
          <mxGeometry x="740" y="280" width="120" height="60" as="geometry" />
        </mxCell>
      </root>
    </mxGraphModel>
  </diagram>
</mxfile>
